G04 (created by PCBNEW-RS274X (2011-05-25)-stable) date Tue 26 Jun 2012 11:05:58 AM PDT*
G01*
G70*
G90*
%MOIN*%
G04 Gerber Fmt 3.4, Leading zero omitted, Abs format*
%FSLAX34Y34*%
G04 APERTURE LIST*
%ADD10C,0.006000*%
%ADD11C,0.060000*%
%ADD12C,0.200000*%
%ADD13C,0.181100*%
%ADD14C,0.160000*%
%ADD15C,0.066000*%
%ADD16C,0.030000*%
G04 APERTURE END LIST*
G54D10*
G54D11*
X62832Y-52348D03*
X67832Y-52348D03*
X62812Y-51048D03*
X67812Y-51048D03*
G54D12*
X63551Y-42545D03*
G54D13*
X65913Y-42545D03*
G54D14*
X25683Y-57437D03*
X67598Y-35544D03*
X67577Y-57437D03*
X25642Y-35544D03*
G54D15*
X33488Y-41797D03*
X34488Y-41797D03*
X36629Y-35515D03*
X37629Y-35515D03*
X39769Y-35515D03*
X40769Y-35515D03*
X42910Y-35515D03*
X43910Y-35515D03*
X46050Y-35515D03*
X47050Y-35515D03*
X49191Y-35515D03*
X50191Y-35515D03*
X52331Y-35515D03*
X53331Y-35515D03*
X55472Y-35515D03*
X56472Y-35515D03*
X58612Y-35515D03*
X59612Y-35515D03*
X33488Y-38656D03*
X34488Y-38656D03*
X36629Y-38656D03*
X37629Y-38656D03*
X39769Y-38656D03*
X40769Y-38656D03*
X42910Y-38656D03*
X43910Y-38656D03*
X46050Y-38656D03*
X47050Y-38656D03*
X49191Y-38656D03*
X50191Y-38656D03*
X52331Y-38656D03*
X53331Y-38656D03*
X55472Y-38656D03*
X56472Y-38656D03*
X58612Y-38656D03*
X59612Y-38656D03*
X52331Y-41797D03*
X53331Y-41797D03*
X49191Y-41797D03*
X50191Y-41797D03*
X46050Y-41797D03*
X47050Y-41797D03*
X42910Y-41797D03*
X43910Y-41797D03*
X39769Y-41797D03*
X40769Y-41797D03*
X36629Y-41797D03*
X37629Y-41797D03*
X58612Y-41797D03*
X59612Y-41797D03*
X55472Y-41797D03*
X56472Y-41797D03*
X33488Y-44938D03*
X34488Y-44938D03*
X55472Y-44938D03*
X56472Y-44938D03*
X52331Y-44938D03*
X53331Y-44938D03*
X49191Y-44938D03*
X50191Y-44938D03*
X46050Y-44938D03*
X47050Y-44938D03*
X42910Y-44938D03*
X43910Y-44938D03*
X39769Y-44938D03*
X40769Y-44938D03*
X36629Y-44938D03*
X37629Y-44938D03*
X58612Y-44938D03*
X59612Y-44938D03*
X33488Y-57500D03*
X34488Y-57500D03*
X33488Y-54360D03*
X34488Y-54360D03*
X33488Y-51101D03*
X34488Y-51101D03*
X33488Y-48079D03*
X34488Y-48079D03*
X58612Y-48079D03*
X59612Y-48079D03*
X55472Y-48079D03*
X56472Y-48079D03*
X52331Y-48079D03*
X53331Y-48079D03*
X49191Y-48079D03*
X50191Y-48079D03*
X42910Y-48079D03*
X43910Y-48079D03*
X46050Y-48079D03*
X47050Y-48079D03*
X39769Y-48079D03*
X40769Y-48079D03*
X36629Y-48079D03*
X37629Y-48079D03*
X36629Y-51101D03*
X37629Y-51101D03*
X58612Y-51101D03*
X59612Y-51101D03*
X55472Y-51101D03*
X56472Y-51101D03*
X52331Y-51101D03*
X53331Y-51101D03*
X49191Y-51101D03*
X50191Y-51101D03*
X46050Y-51101D03*
X47050Y-51101D03*
X42910Y-51101D03*
X43910Y-51101D03*
X39769Y-51101D03*
X40769Y-51101D03*
X36629Y-54360D03*
X37629Y-54360D03*
X58612Y-54360D03*
X59612Y-54360D03*
X55472Y-54360D03*
X56472Y-54360D03*
X52331Y-54360D03*
X53331Y-54360D03*
X49191Y-54360D03*
X50191Y-54360D03*
X46050Y-54360D03*
X47050Y-54360D03*
X42910Y-54360D03*
X43910Y-54360D03*
X39769Y-54360D03*
X40769Y-54360D03*
X39769Y-57500D03*
X40769Y-57500D03*
X36629Y-57500D03*
X37629Y-57500D03*
X58612Y-57500D03*
X59612Y-57500D03*
X55463Y-57500D03*
X56463Y-57500D03*
X52331Y-57500D03*
X53331Y-57500D03*
X49191Y-57500D03*
X50191Y-57500D03*
X46050Y-57500D03*
X47050Y-57500D03*
X42910Y-57500D03*
X43910Y-57500D03*
X33488Y-35515D03*
X34488Y-35515D03*
G54D16*
X65913Y-49149D02*
X67812Y-51048D01*
X65913Y-42545D02*
X65913Y-49149D01*
X67812Y-52328D02*
X67812Y-51048D01*
X67832Y-52348D02*
X67812Y-52328D01*
X50190Y-54360D02*
X50191Y-54360D01*
X47050Y-57500D02*
X50190Y-54360D01*
X62832Y-54280D02*
X62832Y-52348D01*
X59612Y-57500D02*
X62832Y-54280D01*
X53331Y-51220D02*
X53331Y-51101D01*
X50191Y-54360D02*
X53331Y-51220D01*
X47050Y-44939D02*
X47050Y-44938D01*
X43910Y-48079D02*
X47050Y-44939D01*
X53450Y-51101D02*
X56472Y-48079D01*
X53331Y-51101D02*
X53450Y-51101D01*
X59612Y-44939D02*
X59612Y-44938D01*
X56472Y-48079D02*
X59612Y-44939D01*
X40888Y-51101D02*
X43910Y-48079D01*
X40769Y-51101D02*
X40888Y-51101D01*
X40769Y-38657D02*
X40769Y-38656D01*
X37629Y-41797D02*
X40769Y-38657D01*
X47050Y-44938D02*
X50191Y-41797D01*
X53331Y-38656D02*
X56472Y-35515D01*
X40769Y-38656D02*
X43910Y-35515D01*
X51484Y-40504D02*
X51484Y-38142D01*
X50191Y-41797D02*
X51484Y-40504D01*
X51617Y-38009D02*
X51484Y-38142D01*
X52684Y-38009D02*
X51617Y-38009D01*
X53331Y-38656D02*
X52684Y-38009D01*
X44867Y-34558D02*
X43910Y-35515D01*
X46920Y-34558D02*
X44867Y-34558D01*
X50504Y-38142D02*
X46920Y-34558D01*
X51484Y-38142D02*
X50504Y-38142D01*
X62832Y-51068D02*
X62832Y-52348D01*
X62812Y-51048D02*
X62832Y-51068D01*
X40769Y-51220D02*
X37629Y-54360D01*
X40769Y-51101D02*
X40769Y-51220D01*
X34489Y-57500D02*
X34488Y-57500D01*
X37629Y-54360D02*
X34489Y-57500D01*
X36629Y-57500D02*
X39769Y-54360D01*
X49191Y-57500D02*
X52331Y-54360D01*
X42910Y-51219D02*
X42910Y-51101D01*
X39769Y-54360D02*
X42910Y-51219D01*
X55472Y-51219D02*
X55472Y-51101D01*
X52331Y-54360D02*
X55472Y-51219D01*
X45932Y-48079D02*
X46050Y-48079D01*
X42910Y-51101D02*
X45932Y-48079D01*
X58494Y-48079D02*
X58612Y-48079D01*
X55472Y-51101D02*
X58494Y-48079D01*
X58612Y-47484D02*
X63551Y-42545D01*
X58612Y-48079D02*
X58612Y-47484D01*
X46050Y-48079D02*
X49191Y-44938D01*
X52331Y-41798D02*
X52331Y-41797D01*
X49191Y-44938D02*
X52331Y-41798D01*
X52331Y-41797D02*
X55472Y-38656D01*
X39769Y-41797D02*
X42910Y-38656D01*
X46050Y-35516D02*
X46050Y-35515D01*
X42910Y-38656D02*
X46050Y-35516D01*
X63551Y-41689D02*
X63551Y-42545D01*
X57995Y-36133D02*
X63551Y-41689D01*
X55472Y-38656D02*
X57995Y-36133D01*
X58612Y-35516D02*
X58612Y-35515D01*
X57995Y-36133D02*
X58612Y-35516D01*
X35559Y-42297D02*
X37414Y-44152D01*
X35559Y-35674D02*
X35559Y-42297D01*
X34505Y-34620D02*
X35559Y-35674D01*
X34383Y-34620D02*
X34505Y-34620D01*
X33488Y-35515D02*
X34383Y-34620D01*
X37414Y-44152D02*
X39769Y-41797D01*
X36629Y-44937D02*
X37414Y-44152D01*
X36629Y-44938D02*
X36629Y-44937D01*
X36629Y-44938D02*
X33488Y-48079D01*
M02*
