M48
;DRILL file {Pcbnew (2013-mar-13)-testing} date Mon 18 Nov 2013 03:51:17 PM PST
;FORMAT={2:4/ absolute / inch / suppress trailing zeros}
FMAT,2
INCH,LZ
T1C0.032
T2C0.063
T3C0.070
T4C0.106
T5C0.120
T6C0.124
%
G90
G05
M72
T1
X028937Y-010492
X028937Y-015492
X028937Y-018366
X028937Y-023366
X028937Y-02624
X028937Y-03124
X028937Y-034114
X028937Y-039114
X028937Y-041988
X028937Y-046988
X028937Y-049862
X028937Y-054862
X033358Y-007874
X033358Y-011024
X033358Y-014173
X033358Y-017323
X033358Y-020472
X033358Y-023622
X033358Y-026772
X033358Y-029921
X033358Y-033071
X033358Y-03622
X033358Y-03937
X033358Y-04252
X033358Y-045669
X033358Y-048819
X033358Y-051969
X033358Y-055118
X033358Y-058268
X033358Y-061417
X034358Y-007874
X034358Y-011024
X034358Y-014173
X034358Y-017323
X034358Y-020472
X034358Y-023622
X034358Y-026772
X034358Y-029921
X034358Y-033071
X034358Y-03622
X034358Y-03937
X034358Y-04252
X034358Y-045669
X034358Y-048819
X034358Y-051969
X034358Y-055118
X034358Y-058268
X034358Y-061417
X036508Y-007815
X036508Y-011024
X036508Y-014173
X036508Y-017323
X036508Y-020472
X036508Y-023622
X036508Y-026772
X036508Y-029921
X036508Y-033071
X036508Y-03622
X036508Y-03937
X036508Y-04252
X036508Y-045669
X036508Y-048819
X036508Y-051969
X036508Y-055118
X036508Y-058268
X036508Y-061417
X037508Y-007815
X037508Y-011024
X037508Y-014173
X037508Y-017323
X037508Y-020472
X037508Y-023622
X037508Y-026772
X037508Y-029921
X037508Y-033071
X037508Y-03622
X037508Y-03937
X037508Y-04252
X037508Y-045669
X037508Y-048819
X037508Y-051969
X037508Y-055118
X037508Y-058268
X037508Y-061417
X039657Y-011024
X039657Y-014173
X039657Y-017323
X039657Y-020472
X039657Y-023622
X039657Y-026772
X039657Y-029921
X039657Y-033071
X039657Y-03622
X039657Y-03937
X039657Y-04252
X039657Y-045669
X039657Y-048819
X039657Y-051969
X039657Y-055118
X039657Y-058268
X039657Y-061417
X039769Y-007815
X040657Y-011024
X040657Y-014173
X040657Y-017323
X040657Y-020472
X040657Y-023622
X040657Y-026772
X040657Y-029921
X040657Y-033071
X040657Y-03622
X040657Y-03937
X040657Y-04252
X040657Y-045669
X040657Y-048819
X040657Y-051969
X040657Y-055118
X040657Y-058268
X040657Y-061417
X040769Y-007815
X042807Y-007815
X042807Y-011024
X042807Y-014173
X042807Y-017323
X042807Y-020472
X042807Y-023622
X042807Y-026772
X042807Y-029921
X042807Y-033071
X042807Y-03622
X042807Y-03937
X042807Y-04252
X042807Y-045669
X042807Y-048819
X042807Y-051969
X042807Y-055118
X042807Y-058268
X042807Y-061417
X043807Y-007815
X043807Y-011024
X043807Y-014173
X043807Y-017323
X043807Y-020472
X043807Y-023622
X043807Y-026772
X043807Y-029921
X043807Y-033071
X043807Y-03622
X043807Y-03937
X043807Y-04252
X043807Y-045669
X043807Y-048819
X043807Y-051969
X043807Y-055118
X043807Y-058268
X043807Y-061417
X045957Y-007815
X045957Y-011024
X045957Y-014173
X045957Y-017323
X045957Y-020472
X045957Y-023622
X045957Y-026772
X045957Y-029921
X045957Y-033071
X045957Y-03622
X045957Y-03937
X045957Y-04252
X045957Y-045669
X045957Y-048819
X045957Y-051969
X045957Y-055118
X045957Y-058268
X045957Y-061417
X046957Y-007815
X046957Y-011024
X046957Y-014173
X046957Y-017323
X046957Y-020472
X046957Y-023622
X046957Y-026772
X046957Y-029921
X046957Y-033071
X046957Y-03622
X046957Y-03937
X046957Y-04252
X046957Y-045669
X046957Y-048819
X046957Y-051969
X046957Y-055118
X046957Y-058268
X046957Y-061417
X049106Y-007815
X049106Y-011024
X049106Y-014173
X049106Y-017323
X049106Y-020472
X049106Y-023622
X049106Y-026772
X049106Y-033071
X049106Y-03622
X049106Y-03937
X049106Y-04252
X049106Y-045669
X049106Y-048819
X049106Y-051969
X049106Y-055118
X049106Y-058268
X049106Y-061417
X049191Y-029921
X050106Y-007815
X050106Y-011024
X050106Y-014173
X050106Y-017323
X050106Y-020472
X050106Y-023622
X050106Y-026772
X050106Y-033071
X050106Y-03622
X050106Y-03937
X050106Y-04252
X050106Y-045669
X050106Y-048819
X050106Y-051969
X050106Y-055118
X050106Y-058268
X050106Y-061417
X050191Y-029921
X052256Y-007815
X052256Y-011024
X052256Y-014173
X052256Y-017323
X052256Y-020472
X052256Y-023622
X052256Y-026772
X052256Y-033071
X052256Y-03622
X052256Y-03937
X052256Y-04252
X052256Y-045669
X052256Y-048819
X052256Y-051969
X052256Y-055118
X052256Y-058268
X052256Y-061417
X052331Y-029921
X053256Y-007815
X053256Y-011024
X053256Y-014173
X053256Y-017323
X053256Y-020472
X053256Y-023622
X053256Y-026772
X053256Y-033071
X053256Y-03622
X053256Y-03937
X053256Y-04252
X053256Y-045669
X053256Y-048819
X053256Y-051969
X053256Y-055118
X053256Y-058268
X053256Y-061417
X053331Y-029921
X055406Y-007815
X055406Y-011024
X055406Y-014173
X055406Y-017323
X055406Y-020472
X055406Y-023622
X055406Y-026772
X055406Y-033071
X055406Y-03622
X055406Y-03937
X055406Y-04252
X055406Y-045669
X055406Y-048819
X055406Y-051969
X055406Y-055118
X055406Y-058268
X055406Y-061417
X055463Y-029921
X056406Y-007815
X056406Y-011024
X056406Y-014173
X056406Y-017323
X056406Y-020472
X056406Y-023622
X056406Y-026772
X056406Y-033071
X056406Y-03622
X056406Y-03937
X056406Y-04252
X056406Y-045669
X056406Y-048819
X056406Y-051969
X056406Y-055118
X056406Y-058268
X056406Y-061417
X056463Y-029921
X058555Y-007815
X058555Y-011024
X058555Y-014173
X058555Y-017323
X058555Y-020472
X058555Y-023622
X058555Y-026772
X058555Y-033071
X058555Y-03622
X058555Y-03937
X058555Y-04252
X058555Y-045669
X058555Y-048819
X058555Y-051969
X058555Y-055118
X058555Y-058268
X058555Y-061417
X058612Y-029921
X059555Y-007815
X059555Y-011024
X059555Y-014173
X059555Y-017323
X059555Y-020472
X059555Y-023622
X059555Y-026772
X059555Y-033071
X059555Y-03622
X059555Y-03937
X059555Y-04252
X059555Y-045669
X059555Y-048819
X059555Y-051969
X059555Y-055118
X059555Y-058268
X059555Y-061417
X059612Y-029921
X061705Y-007815
X061705Y-011024
X061705Y-014173
X061705Y-017323
X061705Y-020472
X061705Y-023622
X061705Y-026772
X061705Y-029921
X061705Y-033071
X061705Y-03622
X061705Y-03937
X061705Y-04252
X061705Y-045669
X061705Y-048819
X061705Y-051969
X061705Y-055118
X061705Y-058268
X061705Y-061417
X062705Y-007815
X062705Y-011024
X062705Y-014173
X062705Y-017323
X062705Y-020472
X062705Y-023622
X062705Y-026772
X062705Y-029921
X062705Y-033071
X062705Y-03622
X062705Y-03937
X062705Y-04252
X062705Y-045669
X062705Y-048819
X062705Y-051969
X062705Y-055118
X062705Y-058268
X062705Y-061417
X064854Y-007815
X064854Y-011024
X064854Y-014173
X064854Y-017323
X064854Y-020472
X064854Y-023622
X064854Y-026772
X064854Y-029921
X064854Y-033071
X064854Y-03622
X064854Y-03937
X064854Y-04252
X064854Y-045669
X064854Y-048819
X064854Y-051969
X064854Y-055118
X064854Y-058268
X064854Y-061417
X065854Y-007815
X065854Y-011024
X065854Y-014173
X065854Y-017323
X065854Y-020472
X065854Y-023622
X065854Y-026772
X065854Y-029921
X065854Y-033071
X065854Y-03622
X065854Y-03937
X065854Y-04252
X065854Y-045669
X065854Y-048819
X065854Y-051969
X065854Y-055118
X065854Y-058268
X065854Y-061417
X068004Y-007815
X068004Y-011024
X068004Y-014173
X068004Y-017323
X068004Y-020472
X068004Y-023622
X068004Y-026772
X068004Y-029921
X068004Y-033071
X068004Y-03622
X068004Y-03937
X068004Y-04252
X068004Y-045669
X068004Y-048819
X068004Y-051969
X068004Y-055118
X068004Y-058268
X068004Y-061417
X069004Y-007815
X069004Y-011024
X069004Y-014173
X069004Y-017323
X069004Y-020472
X069004Y-023622
X069004Y-026772
X069004Y-029921
X069004Y-033071
X069004Y-03622
X069004Y-03937
X069004Y-04252
X069004Y-045669
X069004Y-048819
X069004Y-051969
X069004Y-055118
X069004Y-058268
X069004Y-061417
X071154Y-007815
X071154Y-011024
X071154Y-014173
X071154Y-017323
X071154Y-020472
X071154Y-023622
X071154Y-026772
X071154Y-029921
X071154Y-033071
X071154Y-03622
X071154Y-03937
X071154Y-04252
X071154Y-045669
X071154Y-048819
X071154Y-051969
X071154Y-055118
X071154Y-058268
X071154Y-061417
X072154Y-007815
X072154Y-011024
X072154Y-014173
X072154Y-017323
X072154Y-020472
X072154Y-023622
X072154Y-026772
X072154Y-029921
X072154Y-033071
X072154Y-03622
X072154Y-03937
X072154Y-04252
X072154Y-045669
X072154Y-048819
X072154Y-051969
X072154Y-055118
X072154Y-058268
X072154Y-061417
X074303Y-007815
X074303Y-011024
X074303Y-014173
X074303Y-017323
X074303Y-020472
X074303Y-023622
X074303Y-026772
X074303Y-029921
X074303Y-033071
X074303Y-03622
X074303Y-03937
X074303Y-04252
X074303Y-045669
X074303Y-048819
X074303Y-051969
X074303Y-055118
X074303Y-058268
X074303Y-061417
X075303Y-007815
X075303Y-011024
X075303Y-014173
X075303Y-017323
X075303Y-020472
X075303Y-023622
X075303Y-026772
X075303Y-029921
X075303Y-033071
X075303Y-03622
X075303Y-03937
X075303Y-04252
X075303Y-045669
X075303Y-048819
X075303Y-051969
X075303Y-055118
X075303Y-058268
X075303Y-061417
X077453Y-007815
X077453Y-011024
X077453Y-014173
X077453Y-017323
X077453Y-020472
X077453Y-023622
X077453Y-026772
X077453Y-029921
X077453Y-033071
X077453Y-03622
X077453Y-03937
X077453Y-04252
X077453Y-045669
X077453Y-048819
X077453Y-051969
X077453Y-055118
X077453Y-058268
X077453Y-061417
X078453Y-007815
X078453Y-011024
X078453Y-014173
X078453Y-017323
X078453Y-020472
X078453Y-023622
X078453Y-026772
X078453Y-029921
X078453Y-033071
X078453Y-03622
X078453Y-03937
X078453Y-04252
X078453Y-045669
X078453Y-048819
X078453Y-051969
X078453Y-055118
X078453Y-058268
X078453Y-061417
X080602Y-007815
X080602Y-011024
X080602Y-014173
X080602Y-017323
X080602Y-020472
X080602Y-023622
X080602Y-026772
X080602Y-029921
X080602Y-033071
X080602Y-03622
X080602Y-03937
X080602Y-04252
X080602Y-045669
X080602Y-048819
X080602Y-051969
X080602Y-055118
X080602Y-058268
X080602Y-061417
X081602Y-007815
X081602Y-011024
X081602Y-014173
X081602Y-017323
X081602Y-020472
X081602Y-023622
X081602Y-026772
X081602Y-029921
X081602Y-033071
X081602Y-03622
X081602Y-03937
X081602Y-04252
X081602Y-045669
X081602Y-048819
X081602Y-051969
X081602Y-055118
X081602Y-058268
X081602Y-061417
X083752Y-007815
X083752Y-011024
X083752Y-014173
X083752Y-017323
X083752Y-020472
X083752Y-023622
X083752Y-026772
X083752Y-029921
X083752Y-033071
X083752Y-03622
X083752Y-03937
X083752Y-04252
X083752Y-045669
X083752Y-048819
X083752Y-051969
X083752Y-055118
X083752Y-058268
X083752Y-061417
X084752Y-007815
X084752Y-011024
X084752Y-014173
X084752Y-017323
X084752Y-020472
X084752Y-023622
X084752Y-026772
X084752Y-029921
X084752Y-033071
X084752Y-03622
X084752Y-03937
X084752Y-04252
X084752Y-045669
X084752Y-048819
X084752Y-051969
X084752Y-055118
X084752Y-058268
X084752Y-061417
X086902Y-007815
X086902Y-011024
X086902Y-014173
X086902Y-017323
X086902Y-020472
X086902Y-023622
X086902Y-026772
X086902Y-029921
X086902Y-033071
X086902Y-03622
X086902Y-03937
X086902Y-04252
X086902Y-045669
X086902Y-048819
X086902Y-051969
X086902Y-055118
X086902Y-058268
X086902Y-061417
X087902Y-007815
X087902Y-011024
X087902Y-014173
X087902Y-017323
X087902Y-020472
X087902Y-023622
X087902Y-026772
X087902Y-029921
X087902Y-033071
X087902Y-03622
X087902Y-03937
X087902Y-04252
X087902Y-045669
X087902Y-048819
X087902Y-051969
X087902Y-055118
X087902Y-058268
X087902Y-061417
T2
X09607Y-015748
T3
X0942Y-025689
X0942Y-027559
X0942Y-029429
T4
X09489Y-015748
X09528Y-013978
X09528Y-017518
T5
X025984Y-007874
X025984Y-061417
X095276Y-007874
X095276Y-061417
T6
X09253Y-015748
T0
M30
