G04 (created by PCBNEW-RS274X (2011-05-25)-stable) date Tue 26 Jun 2012 11:18:22 AM PDT*
G01*
G70*
G90*
%MOIN*%
G04 Gerber Fmt 3.4, Leading zero omitted, Abs format*
%FSLAX34Y34*%
G04 APERTURE LIST*
%ADD10C,0.006000*%
%ADD11C,0.080000*%
%ADD12C,0.220000*%
%ADD13C,0.201100*%
%ADD14C,0.180000*%
%ADD15C,0.086000*%
G04 APERTURE END LIST*
G54D10*
G54D11*
X62832Y-52348D03*
X67832Y-52348D03*
X62812Y-51048D03*
X67812Y-51048D03*
G54D12*
X63551Y-42545D03*
G54D13*
X65913Y-42545D03*
G54D14*
X25683Y-57437D03*
X67598Y-35544D03*
X67577Y-57437D03*
X25642Y-35544D03*
G54D15*
X33488Y-41797D03*
X34488Y-41797D03*
X36629Y-35515D03*
X37629Y-35515D03*
X39769Y-35515D03*
X40769Y-35515D03*
X42910Y-35515D03*
X43910Y-35515D03*
X46050Y-35515D03*
X47050Y-35515D03*
X49191Y-35515D03*
X50191Y-35515D03*
X52331Y-35515D03*
X53331Y-35515D03*
X55472Y-35515D03*
X56472Y-35515D03*
X58612Y-35515D03*
X59612Y-35515D03*
X33488Y-38656D03*
X34488Y-38656D03*
X36629Y-38656D03*
X37629Y-38656D03*
X39769Y-38656D03*
X40769Y-38656D03*
X42910Y-38656D03*
X43910Y-38656D03*
X46050Y-38656D03*
X47050Y-38656D03*
X49191Y-38656D03*
X50191Y-38656D03*
X52331Y-38656D03*
X53331Y-38656D03*
X55472Y-38656D03*
X56472Y-38656D03*
X58612Y-38656D03*
X59612Y-38656D03*
X52331Y-41797D03*
X53331Y-41797D03*
X49191Y-41797D03*
X50191Y-41797D03*
X46050Y-41797D03*
X47050Y-41797D03*
X42910Y-41797D03*
X43910Y-41797D03*
X39769Y-41797D03*
X40769Y-41797D03*
X36629Y-41797D03*
X37629Y-41797D03*
X58612Y-41797D03*
X59612Y-41797D03*
X55472Y-41797D03*
X56472Y-41797D03*
X33488Y-44938D03*
X34488Y-44938D03*
X55472Y-44938D03*
X56472Y-44938D03*
X52331Y-44938D03*
X53331Y-44938D03*
X49191Y-44938D03*
X50191Y-44938D03*
X46050Y-44938D03*
X47050Y-44938D03*
X42910Y-44938D03*
X43910Y-44938D03*
X39769Y-44938D03*
X40769Y-44938D03*
X36629Y-44938D03*
X37629Y-44938D03*
X58612Y-44938D03*
X59612Y-44938D03*
X33488Y-57500D03*
X34488Y-57500D03*
X33488Y-54360D03*
X34488Y-54360D03*
X33488Y-51101D03*
X34488Y-51101D03*
X33488Y-48079D03*
X34488Y-48079D03*
X58612Y-48079D03*
X59612Y-48079D03*
X55472Y-48079D03*
X56472Y-48079D03*
X52331Y-48079D03*
X53331Y-48079D03*
X49191Y-48079D03*
X50191Y-48079D03*
X42910Y-48079D03*
X43910Y-48079D03*
X46050Y-48079D03*
X47050Y-48079D03*
X39769Y-48079D03*
X40769Y-48079D03*
X36629Y-48079D03*
X37629Y-48079D03*
X36629Y-51101D03*
X37629Y-51101D03*
X58612Y-51101D03*
X59612Y-51101D03*
X55472Y-51101D03*
X56472Y-51101D03*
X52331Y-51101D03*
X53331Y-51101D03*
X49191Y-51101D03*
X50191Y-51101D03*
X46050Y-51101D03*
X47050Y-51101D03*
X42910Y-51101D03*
X43910Y-51101D03*
X39769Y-51101D03*
X40769Y-51101D03*
X36629Y-54360D03*
X37629Y-54360D03*
X58612Y-54360D03*
X59612Y-54360D03*
X55472Y-54360D03*
X56472Y-54360D03*
X52331Y-54360D03*
X53331Y-54360D03*
X49191Y-54360D03*
X50191Y-54360D03*
X46050Y-54360D03*
X47050Y-54360D03*
X42910Y-54360D03*
X43910Y-54360D03*
X39769Y-54360D03*
X40769Y-54360D03*
X39769Y-57500D03*
X40769Y-57500D03*
X36629Y-57500D03*
X37629Y-57500D03*
X58612Y-57500D03*
X59612Y-57500D03*
X55463Y-57500D03*
X56463Y-57500D03*
X52331Y-57500D03*
X53331Y-57500D03*
X49191Y-57500D03*
X50191Y-57500D03*
X46050Y-57500D03*
X47050Y-57500D03*
X42910Y-57500D03*
X43910Y-57500D03*
X33488Y-35515D03*
X34488Y-35515D03*
M02*
