M48
;DRILL file {Pcbnew (2011-nov-30)-testing} date Thu 30 Aug 2012 11:44:38 AM PDT
;FORMAT={2:4/ absolute / inch / suppress trailing zeros}
FMAT,2
INCH,LZ
T1C0.032
T2C0.070
T3C0.102
T4C0.118
T5C0.120
%
G90
G05
M72
T1
X033488Y-035515
X033488Y-038656
X033488Y-041797
X033488Y-044938
X033488Y-048079
X033488Y-051101
X033488Y-05436
X033488Y-0575
X034488Y-035515
X034488Y-038656
X034488Y-041797
X034488Y-044938
X034488Y-048079
X034488Y-051101
X034488Y-05436
X034488Y-0575
X036629Y-035515
X036629Y-038656
X036629Y-041797
X036629Y-044938
X036629Y-048079
X036629Y-051101
X036629Y-05436
X036629Y-0575
X037629Y-035515
X037629Y-038656
X037629Y-041797
X037629Y-044938
X037629Y-048079
X037629Y-051101
X037629Y-05436
X037629Y-0575
X039769Y-035515
X039769Y-038656
X039769Y-041797
X039769Y-044938
X039769Y-048079
X039769Y-051101
X039769Y-05436
X039769Y-0575
X040769Y-035515
X040769Y-038656
X040769Y-041797
X040769Y-044938
X040769Y-048079
X040769Y-051101
X040769Y-05436
X040769Y-0575
X04291Y-035515
X04291Y-038656
X04291Y-041797
X04291Y-044938
X04291Y-048079
X04291Y-051101
X04291Y-05436
X04291Y-0575
X04391Y-035515
X04391Y-038656
X04391Y-041797
X04391Y-044938
X04391Y-048079
X04391Y-051101
X04391Y-05436
X04391Y-0575
X04605Y-035515
X04605Y-038656
X04605Y-041797
X04605Y-044938
X04605Y-048079
X04605Y-051101
X04605Y-05436
X04605Y-0575
X04705Y-035515
X04705Y-038656
X04705Y-041797
X04705Y-044938
X04705Y-048079
X04705Y-051101
X04705Y-05436
X04705Y-0575
X049191Y-035515
X049191Y-038656
X049191Y-041797
X049191Y-044938
X049191Y-048079
X049191Y-051101
X049191Y-05436
X049191Y-0575
X050191Y-035515
X050191Y-038656
X050191Y-041797
X050191Y-044938
X050191Y-048079
X050191Y-051101
X050191Y-05436
X050191Y-0575
X052331Y-035515
X052331Y-038656
X052331Y-041797
X052331Y-044938
X052331Y-048079
X052331Y-051101
X052331Y-05436
X052331Y-0575
X053331Y-035515
X053331Y-038656
X053331Y-041797
X053331Y-044938
X053331Y-048079
X053331Y-051101
X053331Y-05436
X053331Y-0575
X055463Y-0575
X055472Y-035515
X055472Y-038656
X055472Y-041797
X055472Y-044938
X055472Y-048079
X055472Y-051101
X055472Y-05436
X056463Y-0575
X056472Y-035515
X056472Y-038656
X056472Y-041797
X056472Y-044938
X056472Y-048079
X056472Y-051101
X056472Y-05436
X058612Y-035515
X058612Y-038656
X058612Y-041797
X058612Y-044938
X058612Y-048079
X058612Y-051101
X058612Y-05436
X058612Y-0575
X059612Y-035515
X059612Y-038656
X059612Y-041797
X059612Y-044938
X059612Y-048079
X059612Y-051101
X059612Y-05436
X059612Y-0575
X06215Y-0459
X06215Y-0509
X06215Y-0526
X06215Y-0576
T2
X066Y-048175
X066Y-050045
X066Y-051915
T3
X065913Y-042545
T4
X063551Y-042545
T5
X025642Y-035544
X025683Y-057437
X067577Y-057437
X067598Y-035544
T0
M30
