G04 (created by PCBNEW-RS274X (2011-nov-30)-testing) date Thu 30 Aug 2012 11:44:27 AM PDT*
%MOIN*%
G04 Gerber Fmt 3.4, Leading zero omitted, Abs format*
%FSLAX34Y34*%
G01*
G70*
G90*
G04 APERTURE LIST*
%ADD10C,0.006*%
%ADD11C,0.06*%
%ADD12C,0.2*%
%ADD13C,0.1811*%
%ADD14C,0.16*%
%ADD15C,0.1*%
%ADD16C,0.066*%
%ADD17C,0.03*%
G04 APERTURE END LIST*
G54D10*
G54D11*
X62150Y-57600D03*
X62150Y-52600D03*
X62150Y-50900D03*
X62150Y-45900D03*
G54D12*
X63551Y-42545D03*
G54D13*
X65913Y-42545D03*
G54D14*
X25683Y-57437D03*
X67598Y-35544D03*
X67577Y-57437D03*
X25642Y-35544D03*
G54D15*
X66000Y-51915D03*
X66000Y-50045D03*
X66000Y-48175D03*
G54D16*
X33488Y-35515D03*
X34488Y-35515D03*
X42910Y-57500D03*
X43910Y-57500D03*
X46050Y-57500D03*
X47050Y-57500D03*
X49191Y-57500D03*
X50191Y-57500D03*
X52331Y-57500D03*
X53331Y-57500D03*
X55463Y-57500D03*
X56463Y-57500D03*
X58612Y-57500D03*
X59612Y-57500D03*
X36629Y-57500D03*
X37629Y-57500D03*
X39769Y-57500D03*
X40769Y-57500D03*
X39769Y-54360D03*
X40769Y-54360D03*
X42910Y-54360D03*
X43910Y-54360D03*
X46050Y-54360D03*
X47050Y-54360D03*
X49191Y-54360D03*
X50191Y-54360D03*
X52331Y-54360D03*
X53331Y-54360D03*
X55472Y-54360D03*
X56472Y-54360D03*
X58612Y-54360D03*
X59612Y-54360D03*
X36629Y-54360D03*
X37629Y-54360D03*
X39769Y-51101D03*
X40769Y-51101D03*
X42910Y-51101D03*
X43910Y-51101D03*
X46050Y-51101D03*
X47050Y-51101D03*
X49191Y-51101D03*
X50191Y-51101D03*
X52331Y-51101D03*
X53331Y-51101D03*
X55472Y-51101D03*
X56472Y-51101D03*
X58612Y-51101D03*
X59612Y-51101D03*
X36629Y-51101D03*
X37629Y-51101D03*
X36629Y-48079D03*
X37629Y-48079D03*
X39769Y-48079D03*
X40769Y-48079D03*
X46050Y-48079D03*
X47050Y-48079D03*
X42910Y-48079D03*
X43910Y-48079D03*
X49191Y-48079D03*
X50191Y-48079D03*
X52331Y-48079D03*
X53331Y-48079D03*
X55472Y-48079D03*
X56472Y-48079D03*
X58612Y-48079D03*
X59612Y-48079D03*
X33488Y-48079D03*
X34488Y-48079D03*
X33488Y-51101D03*
X34488Y-51101D03*
X33488Y-54360D03*
X34488Y-54360D03*
X33488Y-57500D03*
X34488Y-57500D03*
X58612Y-44938D03*
X59612Y-44938D03*
X36629Y-44938D03*
X37629Y-44938D03*
X39769Y-44938D03*
X40769Y-44938D03*
X42910Y-44938D03*
X43910Y-44938D03*
X46050Y-44938D03*
X47050Y-44938D03*
X49191Y-44938D03*
X50191Y-44938D03*
X52331Y-44938D03*
X53331Y-44938D03*
X55472Y-44938D03*
X56472Y-44938D03*
X33488Y-44938D03*
X34488Y-44938D03*
X55472Y-41797D03*
X56472Y-41797D03*
X58612Y-41797D03*
X59612Y-41797D03*
X36629Y-41797D03*
X37629Y-41797D03*
X39769Y-41797D03*
X40769Y-41797D03*
X42910Y-41797D03*
X43910Y-41797D03*
X46050Y-41797D03*
X47050Y-41797D03*
X49191Y-41797D03*
X50191Y-41797D03*
X52331Y-41797D03*
X53331Y-41797D03*
X58612Y-38656D03*
X59612Y-38656D03*
X55472Y-38656D03*
X56472Y-38656D03*
X52331Y-38656D03*
X53331Y-38656D03*
X49191Y-38656D03*
X50191Y-38656D03*
X46050Y-38656D03*
X47050Y-38656D03*
X42910Y-38656D03*
X43910Y-38656D03*
X39769Y-38656D03*
X40769Y-38656D03*
X36629Y-38656D03*
X37629Y-38656D03*
X33488Y-38656D03*
X34488Y-38656D03*
X58612Y-35515D03*
X59612Y-35515D03*
X55472Y-35515D03*
X56472Y-35515D03*
X52331Y-35515D03*
X53331Y-35515D03*
X49191Y-35515D03*
X50191Y-35515D03*
X46050Y-35515D03*
X47050Y-35515D03*
X42910Y-35515D03*
X43910Y-35515D03*
X39769Y-35515D03*
X40769Y-35515D03*
X36629Y-35515D03*
X37629Y-35515D03*
X33488Y-41797D03*
X34488Y-41797D03*
G54D17*
X65913Y-43712D02*
X65913Y-42545D01*
X63725Y-45900D02*
X65913Y-43712D01*
X66000Y-48175D02*
X63725Y-45900D01*
X63725Y-45900D02*
X62150Y-45900D01*
X36629Y-35515D02*
X34488Y-35515D01*
X53331Y-41797D02*
X55472Y-41797D01*
X34643Y-37501D02*
X33488Y-38656D01*
X57626Y-37501D02*
X34643Y-37501D01*
X59612Y-35515D02*
X57626Y-37501D01*
X34488Y-38656D02*
X36629Y-38656D01*
X37629Y-38656D02*
X39769Y-38656D01*
X50191Y-38656D02*
X52331Y-38656D01*
X47050Y-38656D02*
X49191Y-38656D01*
X43910Y-38656D02*
X46050Y-38656D01*
X47050Y-35515D02*
X49191Y-35515D01*
X50191Y-35515D02*
X52331Y-35515D01*
X53331Y-35515D02*
X55472Y-35515D01*
X40769Y-35515D02*
X42910Y-35515D01*
X37629Y-35515D02*
X39769Y-35515D01*
X55317Y-46924D02*
X56472Y-48079D01*
X49036Y-46924D02*
X55317Y-46924D01*
X47050Y-44938D02*
X49036Y-46924D01*
X44479Y-46508D02*
X46050Y-48079D01*
X38199Y-46508D02*
X44479Y-46508D01*
X36629Y-44938D02*
X38199Y-46508D01*
X32550Y-36453D02*
X33488Y-35515D01*
X32550Y-45105D02*
X32550Y-36453D01*
X34506Y-47061D02*
X32550Y-45105D01*
X36629Y-44938D02*
X34506Y-47061D01*
X34506Y-47061D02*
X33488Y-48079D01*
X63430Y-47475D02*
X66000Y-50045D01*
X59216Y-47475D02*
X63430Y-47475D01*
X58612Y-48079D02*
X59216Y-47475D01*
X52331Y-57500D02*
X50191Y-57500D01*
X52331Y-44938D02*
X50191Y-44938D01*
X55472Y-44938D02*
X53331Y-44938D01*
X56472Y-44938D02*
X58612Y-44938D01*
X42910Y-48079D02*
X40769Y-48079D01*
X39769Y-48079D02*
X37629Y-48079D01*
X34488Y-48079D02*
X36629Y-48079D01*
X58517Y-49174D02*
X59612Y-48079D01*
X35415Y-49174D02*
X58517Y-49174D01*
X33488Y-51101D02*
X35415Y-49174D01*
X34488Y-51101D02*
X36629Y-51101D01*
X37629Y-51101D02*
X39769Y-51101D01*
X55472Y-48079D02*
X53331Y-48079D01*
X52331Y-48079D02*
X50191Y-48079D01*
X49191Y-48079D02*
X47050Y-48079D01*
X46050Y-57500D02*
X43910Y-57500D01*
X40769Y-57500D02*
X42910Y-57500D01*
X39769Y-57500D02*
X37629Y-57500D01*
X58612Y-57500D02*
X56463Y-57500D01*
X55463Y-57500D02*
X53331Y-57500D01*
X46050Y-51101D02*
X43910Y-51101D01*
X56472Y-38656D02*
X58612Y-38656D01*
X58457Y-39811D02*
X59612Y-38656D01*
X35474Y-39811D02*
X58457Y-39811D01*
X33488Y-41797D02*
X35474Y-39811D01*
X34488Y-41797D02*
X36629Y-41797D01*
X49191Y-41797D02*
X47050Y-41797D01*
X46050Y-41797D02*
X43910Y-41797D01*
X42910Y-41797D02*
X40769Y-41797D01*
X39769Y-44938D02*
X37629Y-44938D01*
X42910Y-44938D02*
X40769Y-44938D01*
X46050Y-44938D02*
X43910Y-44938D01*
X34643Y-43783D02*
X33488Y-44938D01*
X57626Y-43783D02*
X34643Y-43783D01*
X59612Y-41797D02*
X57626Y-43783D01*
X58612Y-41797D02*
X56472Y-41797D01*
X42910Y-54360D02*
X40769Y-54360D01*
X46050Y-54360D02*
X43910Y-54360D01*
X49191Y-54360D02*
X47050Y-54360D01*
X58458Y-55514D02*
X59612Y-54360D01*
X35474Y-55514D02*
X58458Y-55514D01*
X33488Y-57500D02*
X35474Y-55514D01*
X58612Y-54360D02*
X56472Y-54360D01*
X55472Y-54360D02*
X53331Y-54360D01*
X58612Y-51101D02*
X56472Y-51101D01*
X58398Y-52315D02*
X59612Y-51101D01*
X35533Y-52315D02*
X58398Y-52315D01*
X33488Y-54360D02*
X35533Y-52315D01*
X34488Y-54360D02*
X36629Y-54360D01*
X52331Y-51101D02*
X50191Y-51101D01*
X49191Y-51101D02*
X47050Y-51101D01*
M02*
