G04 (created by PCBNEW (2013-mar-13)-testing) date Mon 18 Nov 2013 04:04:29 PM PST*
%MOIN*%
G04 Gerber Fmt 3.4, Leading zero omitted, Abs format*
%FSLAX34Y34*%
G01*
G70*
G90*
G04 APERTURE LIST*
%ADD10C,0.005906*%
%ADD11C,0.080000*%
%ADD12C,0.180000*%
%ADD13C,0.120000*%
%ADD14C,0.086000*%
%ADD15C,0.096000*%
%ADD16C,0.160000*%
G04 APERTURE END LIST*
G54D10*
G54D11*
X28937Y-31240D03*
X28937Y-26240D03*
X28937Y-23366D03*
X28937Y-18366D03*
G54D12*
X25984Y-61417D03*
X66929Y-7874D03*
X66929Y-61417D03*
X25984Y-7874D03*
G54D13*
X65929Y-29429D03*
X65929Y-27559D03*
X65929Y-25689D03*
G54D14*
X33358Y-7874D03*
X34358Y-7874D03*
X42807Y-29921D03*
X43807Y-29921D03*
X45956Y-29921D03*
X46956Y-29921D03*
X49106Y-29921D03*
X50106Y-29921D03*
X52255Y-29921D03*
X53255Y-29921D03*
X55405Y-29921D03*
X56405Y-29921D03*
X58555Y-29921D03*
X59555Y-29921D03*
X36507Y-29921D03*
X37507Y-29921D03*
X39657Y-29921D03*
X40657Y-29921D03*
X39657Y-26771D03*
X40657Y-26771D03*
X42807Y-26771D03*
X43807Y-26771D03*
X45956Y-26771D03*
X46956Y-26771D03*
X49106Y-26771D03*
X50106Y-26771D03*
X52255Y-26771D03*
X53255Y-26771D03*
X55405Y-26771D03*
X56405Y-26771D03*
X58555Y-26771D03*
X59555Y-26771D03*
X36507Y-26771D03*
X37507Y-26771D03*
X39657Y-23622D03*
X40657Y-23622D03*
X42807Y-23622D03*
X43807Y-23622D03*
X45956Y-23622D03*
X46956Y-23622D03*
X49106Y-23622D03*
X50106Y-23622D03*
X52255Y-23622D03*
X53255Y-23622D03*
X55405Y-23622D03*
X56405Y-23622D03*
X58555Y-23622D03*
X59555Y-23622D03*
X36507Y-23622D03*
X37507Y-23622D03*
X36507Y-20472D03*
X37507Y-20472D03*
X39657Y-20472D03*
X40657Y-20472D03*
X45956Y-20472D03*
X46956Y-20472D03*
X42807Y-20472D03*
X43807Y-20472D03*
X49106Y-20472D03*
X50106Y-20472D03*
X52255Y-20472D03*
X53255Y-20472D03*
X55405Y-20472D03*
X56405Y-20472D03*
X58555Y-20472D03*
X59555Y-20472D03*
X33358Y-20472D03*
X34358Y-20472D03*
X33358Y-23622D03*
X34358Y-23622D03*
X33358Y-26771D03*
X34358Y-26771D03*
X33358Y-29921D03*
X34358Y-29921D03*
X58555Y-17322D03*
X59555Y-17322D03*
X36507Y-17322D03*
X37507Y-17322D03*
X39657Y-17322D03*
X40657Y-17322D03*
X42807Y-17322D03*
X43807Y-17322D03*
X45956Y-17322D03*
X46956Y-17322D03*
X49106Y-17322D03*
X50106Y-17322D03*
X52255Y-17322D03*
X53255Y-17322D03*
X55405Y-17322D03*
X56405Y-17322D03*
X33358Y-17322D03*
X34358Y-17322D03*
X55405Y-14173D03*
X56405Y-14173D03*
X58555Y-14173D03*
X59555Y-14173D03*
X36507Y-14173D03*
X37507Y-14173D03*
X39657Y-14173D03*
X40657Y-14173D03*
X42807Y-14173D03*
X43807Y-14173D03*
X45956Y-14173D03*
X46956Y-14173D03*
X49106Y-14173D03*
X50106Y-14173D03*
X52255Y-14173D03*
X53255Y-14173D03*
X58555Y-11023D03*
X59555Y-11023D03*
X55405Y-11023D03*
X56405Y-11023D03*
X52255Y-11023D03*
X53255Y-11023D03*
X49106Y-11023D03*
X50106Y-11023D03*
X45956Y-11023D03*
X46956Y-11023D03*
X42807Y-11023D03*
X43807Y-11023D03*
X39657Y-11023D03*
X40657Y-11023D03*
X36507Y-11023D03*
X37507Y-11023D03*
X33358Y-11023D03*
X34358Y-11023D03*
X58555Y-7874D03*
X59555Y-7874D03*
X55405Y-7874D03*
X56405Y-7874D03*
X52255Y-7874D03*
X53255Y-7874D03*
X49106Y-7874D03*
X50106Y-7874D03*
X45956Y-7874D03*
X46956Y-7874D03*
X42807Y-7874D03*
X43807Y-7874D03*
X39657Y-7874D03*
X40657Y-7874D03*
X36507Y-7874D03*
X37507Y-7874D03*
X33358Y-14173D03*
X34358Y-14173D03*
X33358Y-33070D03*
X34358Y-33070D03*
X36507Y-33070D03*
X37507Y-33070D03*
X39657Y-33070D03*
X40657Y-33070D03*
X42807Y-33070D03*
X43807Y-33070D03*
X45956Y-33070D03*
X46956Y-33070D03*
X49106Y-33070D03*
X50106Y-33070D03*
X52255Y-33070D03*
X53255Y-33070D03*
X55405Y-33070D03*
X56405Y-33070D03*
X58555Y-33070D03*
X59555Y-33070D03*
X33358Y-36220D03*
X34358Y-36220D03*
X36507Y-36220D03*
X37507Y-36220D03*
X39657Y-36220D03*
X40657Y-36220D03*
X42807Y-36220D03*
X43807Y-36220D03*
X45956Y-36220D03*
X46956Y-36220D03*
X49106Y-36220D03*
X50106Y-36220D03*
X52255Y-36220D03*
X53255Y-36220D03*
X55405Y-36220D03*
X56405Y-36220D03*
X58555Y-36220D03*
X59555Y-36220D03*
X33358Y-39370D03*
X34358Y-39370D03*
X36507Y-39370D03*
X37507Y-39370D03*
X39657Y-39370D03*
X40657Y-39370D03*
X42807Y-39370D03*
X43807Y-39370D03*
X45956Y-39370D03*
X46956Y-39370D03*
X49106Y-39370D03*
X50106Y-39370D03*
X52255Y-39370D03*
X53255Y-39370D03*
X55405Y-39370D03*
X56405Y-39370D03*
X58555Y-39370D03*
X59555Y-39370D03*
X33358Y-42519D03*
X34358Y-42519D03*
X36507Y-42519D03*
X37507Y-42519D03*
X39657Y-42519D03*
X40657Y-42519D03*
X42807Y-42519D03*
X43807Y-42519D03*
X45956Y-42519D03*
X46956Y-42519D03*
X49106Y-42519D03*
X50106Y-42519D03*
X52255Y-42519D03*
X53255Y-42519D03*
X55405Y-42519D03*
X56405Y-42519D03*
X58555Y-42519D03*
X59555Y-42519D03*
X33358Y-45669D03*
X34358Y-45669D03*
X36507Y-45669D03*
X37507Y-45669D03*
X39657Y-45669D03*
X40657Y-45669D03*
X42807Y-45669D03*
X43807Y-45669D03*
X45956Y-45669D03*
X46956Y-45669D03*
X49106Y-45669D03*
X50106Y-45669D03*
X52255Y-45669D03*
X53255Y-45669D03*
X55405Y-45669D03*
X56405Y-45669D03*
X58555Y-45669D03*
X59555Y-45669D03*
X33358Y-48818D03*
X34358Y-48818D03*
X36507Y-48818D03*
X37507Y-48818D03*
X39657Y-48818D03*
X40657Y-48818D03*
X42807Y-48818D03*
X43807Y-48818D03*
X45956Y-48818D03*
X46956Y-48818D03*
X49106Y-48818D03*
X50106Y-48818D03*
X52331Y-48646D03*
X53331Y-48646D03*
X55405Y-48818D03*
X56405Y-48818D03*
X58555Y-48818D03*
X59555Y-48818D03*
X33358Y-51968D03*
X34358Y-51968D03*
X36507Y-51968D03*
X37507Y-51968D03*
X39657Y-51968D03*
X40657Y-51968D03*
X42807Y-51968D03*
X43807Y-51968D03*
X45956Y-51968D03*
X46956Y-51968D03*
X49106Y-51968D03*
X50106Y-51968D03*
X52255Y-51968D03*
X53255Y-51968D03*
X55405Y-51968D03*
X56405Y-51968D03*
X58555Y-51968D03*
X59555Y-51968D03*
X33358Y-55118D03*
X34358Y-55118D03*
X36507Y-55118D03*
X37507Y-55118D03*
X39657Y-55118D03*
X40657Y-55118D03*
X42807Y-55118D03*
X43807Y-55118D03*
X45956Y-55118D03*
X46956Y-55118D03*
X49106Y-55118D03*
X50106Y-55118D03*
X52255Y-55118D03*
X53255Y-55118D03*
X55405Y-55118D03*
X56405Y-55118D03*
X58555Y-55118D03*
X59555Y-55118D03*
G54D11*
X28937Y-39114D03*
X28937Y-34114D03*
G54D14*
X33358Y-58267D03*
X34358Y-58267D03*
X36507Y-58267D03*
X37507Y-58267D03*
X39657Y-58267D03*
X40657Y-58267D03*
X42807Y-58267D03*
X43807Y-58267D03*
X45956Y-58267D03*
X46956Y-58267D03*
X49106Y-58267D03*
X50106Y-58267D03*
X52255Y-58267D03*
X53255Y-58267D03*
X55405Y-58267D03*
X56405Y-58267D03*
X58555Y-58267D03*
X59555Y-58267D03*
X33358Y-61417D03*
X34358Y-61417D03*
X36507Y-61417D03*
X37507Y-61417D03*
X39657Y-61417D03*
X40657Y-61417D03*
X42807Y-61417D03*
X43807Y-61417D03*
X45956Y-61417D03*
X46956Y-61417D03*
X49106Y-61417D03*
X50106Y-61417D03*
X52255Y-61417D03*
X53255Y-61417D03*
X55405Y-61417D03*
X56405Y-61417D03*
X58555Y-61417D03*
X59555Y-61417D03*
G54D15*
X67720Y-15748D03*
G54D16*
X66540Y-15748D03*
G54D12*
X64180Y-15748D03*
G54D16*
X66930Y-13978D03*
X66930Y-17518D03*
M02*
