M48
;DRILL file {Pcbnew (2013-mar-13)-testing} date Mon 18 Nov 2013 04:04:31 PM PST
;FORMAT={2:4/ absolute / inch / suppress trailing zeros}
FMAT,2
INCH,LZ
T1C0.032
T2C0.063
T3C0.070
T4C0.106
T5C0.120
T6C0.124
%
G90
G05
M72
T1
X028937Y-018366
X028937Y-023366
X028937Y-02624
X028937Y-03124
X028937Y-034114
X028937Y-039114
X033358Y-007874
X033358Y-011024
X033358Y-014173
X033358Y-017323
X033358Y-020472
X033358Y-023622
X033358Y-026772
X033358Y-029921
X033358Y-033071
X033358Y-03622
X033358Y-03937
X033358Y-04252
X033358Y-045669
X033358Y-048819
X033358Y-051969
X033358Y-055118
X033358Y-058268
X033358Y-061417
X034358Y-007874
X034358Y-011024
X034358Y-014173
X034358Y-017323
X034358Y-020472
X034358Y-023622
X034358Y-026772
X034358Y-029921
X034358Y-033071
X034358Y-03622
X034358Y-03937
X034358Y-04252
X034358Y-045669
X034358Y-048819
X034358Y-051969
X034358Y-055118
X034358Y-058268
X034358Y-061417
X036508Y-007874
X036508Y-011024
X036508Y-014173
X036508Y-017323
X036508Y-020472
X036508Y-023622
X036508Y-026772
X036508Y-029921
X036508Y-033071
X036508Y-03622
X036508Y-03937
X036508Y-04252
X036508Y-045669
X036508Y-048819
X036508Y-051969
X036508Y-055118
X036508Y-058268
X036508Y-061417
X037508Y-007874
X037508Y-011024
X037508Y-014173
X037508Y-017323
X037508Y-020472
X037508Y-023622
X037508Y-026772
X037508Y-029921
X037508Y-033071
X037508Y-03622
X037508Y-03937
X037508Y-04252
X037508Y-045669
X037508Y-048819
X037508Y-051969
X037508Y-055118
X037508Y-058268
X037508Y-061417
X039657Y-007874
X039657Y-011024
X039657Y-014173
X039657Y-017323
X039657Y-020472
X039657Y-023622
X039657Y-026772
X039657Y-029921
X039657Y-033071
X039657Y-03622
X039657Y-03937
X039657Y-04252
X039657Y-045669
X039657Y-048819
X039657Y-051969
X039657Y-055118
X039657Y-058268
X039657Y-061417
X040657Y-007874
X040657Y-011024
X040657Y-014173
X040657Y-017323
X040657Y-020472
X040657Y-023622
X040657Y-026772
X040657Y-029921
X040657Y-033071
X040657Y-03622
X040657Y-03937
X040657Y-04252
X040657Y-045669
X040657Y-048819
X040657Y-051969
X040657Y-055118
X040657Y-058268
X040657Y-061417
X042807Y-007874
X042807Y-011024
X042807Y-014173
X042807Y-017323
X042807Y-020472
X042807Y-023622
X042807Y-026772
X042807Y-029921
X042807Y-033071
X042807Y-03622
X042807Y-03937
X042807Y-04252
X042807Y-045669
X042807Y-048819
X042807Y-051969
X042807Y-055118
X042807Y-058268
X042807Y-061417
X043807Y-007874
X043807Y-011024
X043807Y-014173
X043807Y-017323
X043807Y-020472
X043807Y-023622
X043807Y-026772
X043807Y-029921
X043807Y-033071
X043807Y-03622
X043807Y-03937
X043807Y-04252
X043807Y-045669
X043807Y-048819
X043807Y-051969
X043807Y-055118
X043807Y-058268
X043807Y-061417
X045957Y-007874
X045957Y-011024
X045957Y-014173
X045957Y-017323
X045957Y-020472
X045957Y-023622
X045957Y-026772
X045957Y-029921
X045957Y-033071
X045957Y-03622
X045957Y-03937
X045957Y-04252
X045957Y-045669
X045957Y-048819
X045957Y-051969
X045957Y-055118
X045957Y-058268
X045957Y-061417
X046957Y-007874
X046957Y-011024
X046957Y-014173
X046957Y-017323
X046957Y-020472
X046957Y-023622
X046957Y-026772
X046957Y-029921
X046957Y-033071
X046957Y-03622
X046957Y-03937
X046957Y-04252
X046957Y-045669
X046957Y-048819
X046957Y-051969
X046957Y-055118
X046957Y-058268
X046957Y-061417
X049106Y-007874
X049106Y-011024
X049106Y-014173
X049106Y-017323
X049106Y-020472
X049106Y-023622
X049106Y-026772
X049106Y-029921
X049106Y-033071
X049106Y-03622
X049106Y-03937
X049106Y-04252
X049106Y-045669
X049106Y-048819
X049106Y-051969
X049106Y-055118
X049106Y-058268
X049106Y-061417
X050106Y-007874
X050106Y-011024
X050106Y-014173
X050106Y-017323
X050106Y-020472
X050106Y-023622
X050106Y-026772
X050106Y-029921
X050106Y-033071
X050106Y-03622
X050106Y-03937
X050106Y-04252
X050106Y-045669
X050106Y-048819
X050106Y-051969
X050106Y-055118
X050106Y-058268
X050106Y-061417
X052256Y-007874
X052256Y-011024
X052256Y-014173
X052256Y-017323
X052256Y-020472
X052256Y-023622
X052256Y-026772
X052256Y-029921
X052256Y-033071
X052256Y-03622
X052256Y-03937
X052256Y-04252
X052256Y-045669
X052256Y-051969
X052256Y-055118
X052256Y-058268
X052256Y-061417
X052331Y-048646
X053256Y-007874
X053256Y-011024
X053256Y-014173
X053256Y-017323
X053256Y-020472
X053256Y-023622
X053256Y-026772
X053256Y-029921
X053256Y-033071
X053256Y-03622
X053256Y-03937
X053256Y-04252
X053256Y-045669
X053256Y-051969
X053256Y-055118
X053256Y-058268
X053256Y-061417
X053331Y-048646
X055406Y-007874
X055406Y-011024
X055406Y-014173
X055406Y-017323
X055406Y-020472
X055406Y-023622
X055406Y-026772
X055406Y-029921
X055406Y-033071
X055406Y-03622
X055406Y-03937
X055406Y-04252
X055406Y-045669
X055406Y-048819
X055406Y-051969
X055406Y-055118
X055406Y-058268
X055406Y-061417
X056406Y-007874
X056406Y-011024
X056406Y-014173
X056406Y-017323
X056406Y-020472
X056406Y-023622
X056406Y-026772
X056406Y-029921
X056406Y-033071
X056406Y-03622
X056406Y-03937
X056406Y-04252
X056406Y-045669
X056406Y-048819
X056406Y-051969
X056406Y-055118
X056406Y-058268
X056406Y-061417
X058555Y-007874
X058555Y-011024
X058555Y-014173
X058555Y-017323
X058555Y-020472
X058555Y-023622
X058555Y-026772
X058555Y-029921
X058555Y-033071
X058555Y-03622
X058555Y-03937
X058555Y-04252
X058555Y-045669
X058555Y-048819
X058555Y-051969
X058555Y-055118
X058555Y-058268
X058555Y-061417
X059555Y-007874
X059555Y-011024
X059555Y-014173
X059555Y-017323
X059555Y-020472
X059555Y-023622
X059555Y-026772
X059555Y-029921
X059555Y-033071
X059555Y-03622
X059555Y-03937
X059555Y-04252
X059555Y-045669
X059555Y-048819
X059555Y-051969
X059555Y-055118
X059555Y-058268
X059555Y-061417
T2
X06772Y-015748
T3
X065929Y-025689
X065929Y-027559
X065929Y-029429
T4
X06654Y-015748
X06693Y-013978
X06693Y-017518
T5
X025984Y-007874
X025984Y-061417
X066929Y-007874
X066929Y-061417
T6
X06418Y-015748
T0
M30
