G04 (created by PCBNEW-RS274X (2011-nov-30)-testing) date Thu 30 Aug 2012 11:44:27 AM PDT*
%MOIN*%
G04 Gerber Fmt 3.4, Leading zero omitted, Abs format*
%FSLAX34Y34*%
G01*
G70*
G90*
G04 APERTURE LIST*
%ADD10C,0.006*%
%ADD11C,0.06*%
%ADD12C,0.2*%
%ADD13C,0.1811*%
%ADD14C,0.16*%
%ADD15C,0.1*%
%ADD16C,0.066*%
%ADD17C,0.03*%
G04 APERTURE END LIST*
G54D10*
G54D11*
X62150Y-57600D03*
X62150Y-52600D03*
X62150Y-50900D03*
X62150Y-45900D03*
G54D12*
X63551Y-42545D03*
G54D13*
X65913Y-42545D03*
G54D14*
X25683Y-57437D03*
X67598Y-35544D03*
X67577Y-57437D03*
X25642Y-35544D03*
G54D15*
X66000Y-51915D03*
X66000Y-50045D03*
X66000Y-48175D03*
G54D16*
X33488Y-35515D03*
X34488Y-35515D03*
X42910Y-57500D03*
X43910Y-57500D03*
X46050Y-57500D03*
X47050Y-57500D03*
X49191Y-57500D03*
X50191Y-57500D03*
X52331Y-57500D03*
X53331Y-57500D03*
X55463Y-57500D03*
X56463Y-57500D03*
X58612Y-57500D03*
X59612Y-57500D03*
X36629Y-57500D03*
X37629Y-57500D03*
X39769Y-57500D03*
X40769Y-57500D03*
X39769Y-54360D03*
X40769Y-54360D03*
X42910Y-54360D03*
X43910Y-54360D03*
X46050Y-54360D03*
X47050Y-54360D03*
X49191Y-54360D03*
X50191Y-54360D03*
X52331Y-54360D03*
X53331Y-54360D03*
X55472Y-54360D03*
X56472Y-54360D03*
X58612Y-54360D03*
X59612Y-54360D03*
X36629Y-54360D03*
X37629Y-54360D03*
X39769Y-51101D03*
X40769Y-51101D03*
X42910Y-51101D03*
X43910Y-51101D03*
X46050Y-51101D03*
X47050Y-51101D03*
X49191Y-51101D03*
X50191Y-51101D03*
X52331Y-51101D03*
X53331Y-51101D03*
X55472Y-51101D03*
X56472Y-51101D03*
X58612Y-51101D03*
X59612Y-51101D03*
X36629Y-51101D03*
X37629Y-51101D03*
X36629Y-48079D03*
X37629Y-48079D03*
X39769Y-48079D03*
X40769Y-48079D03*
X46050Y-48079D03*
X47050Y-48079D03*
X42910Y-48079D03*
X43910Y-48079D03*
X49191Y-48079D03*
X50191Y-48079D03*
X52331Y-48079D03*
X53331Y-48079D03*
X55472Y-48079D03*
X56472Y-48079D03*
X58612Y-48079D03*
X59612Y-48079D03*
X33488Y-48079D03*
X34488Y-48079D03*
X33488Y-51101D03*
X34488Y-51101D03*
X33488Y-54360D03*
X34488Y-54360D03*
X33488Y-57500D03*
X34488Y-57500D03*
X58612Y-44938D03*
X59612Y-44938D03*
X36629Y-44938D03*
X37629Y-44938D03*
X39769Y-44938D03*
X40769Y-44938D03*
X42910Y-44938D03*
X43910Y-44938D03*
X46050Y-44938D03*
X47050Y-44938D03*
X49191Y-44938D03*
X50191Y-44938D03*
X52331Y-44938D03*
X53331Y-44938D03*
X55472Y-44938D03*
X56472Y-44938D03*
X33488Y-44938D03*
X34488Y-44938D03*
X55472Y-41797D03*
X56472Y-41797D03*
X58612Y-41797D03*
X59612Y-41797D03*
X36629Y-41797D03*
X37629Y-41797D03*
X39769Y-41797D03*
X40769Y-41797D03*
X42910Y-41797D03*
X43910Y-41797D03*
X46050Y-41797D03*
X47050Y-41797D03*
X49191Y-41797D03*
X50191Y-41797D03*
X52331Y-41797D03*
X53331Y-41797D03*
X58612Y-38656D03*
X59612Y-38656D03*
X55472Y-38656D03*
X56472Y-38656D03*
X52331Y-38656D03*
X53331Y-38656D03*
X49191Y-38656D03*
X50191Y-38656D03*
X46050Y-38656D03*
X47050Y-38656D03*
X42910Y-38656D03*
X43910Y-38656D03*
X39769Y-38656D03*
X40769Y-38656D03*
X36629Y-38656D03*
X37629Y-38656D03*
X33488Y-38656D03*
X34488Y-38656D03*
X58612Y-35515D03*
X59612Y-35515D03*
X55472Y-35515D03*
X56472Y-35515D03*
X52331Y-35515D03*
X53331Y-35515D03*
X49191Y-35515D03*
X50191Y-35515D03*
X46050Y-35515D03*
X47050Y-35515D03*
X42910Y-35515D03*
X43910Y-35515D03*
X39769Y-35515D03*
X40769Y-35515D03*
X36629Y-35515D03*
X37629Y-35515D03*
X33488Y-41797D03*
X34488Y-41797D03*
G54D17*
X63551Y-49466D02*
X63551Y-42545D01*
X66000Y-51915D02*
X63551Y-49466D01*
X63088Y-51662D02*
X62150Y-52600D01*
X63088Y-46838D02*
X63088Y-51662D01*
X62150Y-45900D02*
X63088Y-46838D01*
X56472Y-35515D02*
X53331Y-38656D01*
X50191Y-41797D02*
X47050Y-44938D01*
X34488Y-57500D02*
X37629Y-54359D01*
X35913Y-52644D02*
X37629Y-54359D01*
X35913Y-46363D02*
X35913Y-52644D01*
X34488Y-44938D02*
X35913Y-46363D01*
X37629Y-54359D02*
X37629Y-54360D01*
X47050Y-44939D02*
X43910Y-48079D01*
X47050Y-44938D02*
X47050Y-44939D01*
X44398Y-51928D02*
X44920Y-51406D01*
X41596Y-51928D02*
X44398Y-51928D01*
X40769Y-51101D02*
X41596Y-51928D01*
X44920Y-49089D02*
X43910Y-48079D01*
X44920Y-51406D02*
X44920Y-49089D01*
X49068Y-55483D02*
X48997Y-55483D01*
X50191Y-54360D02*
X49068Y-55483D01*
X44920Y-51406D02*
X48997Y-55483D01*
X48997Y-55553D02*
X47050Y-57500D01*
X48997Y-55483D02*
X48997Y-55553D01*
X53450Y-51101D02*
X53331Y-51101D01*
X56472Y-48079D02*
X53450Y-51101D01*
X37629Y-41796D02*
X37629Y-41797D01*
X40769Y-38656D02*
X37629Y-41796D01*
X37629Y-41797D02*
X34488Y-44938D01*
X59612Y-44938D02*
X59612Y-45309D01*
X62150Y-47847D02*
X59612Y-45309D01*
X62150Y-50900D02*
X62150Y-47847D01*
X59242Y-45309D02*
X56472Y-48079D01*
X59612Y-45309D02*
X59242Y-45309D01*
X61577Y-51473D02*
X62150Y-50900D01*
X61577Y-57313D02*
X61577Y-51473D01*
X61863Y-57313D02*
X61577Y-57313D01*
X62150Y-57600D02*
X61863Y-57313D01*
X59799Y-57313D02*
X59612Y-57500D01*
X61577Y-57313D02*
X59799Y-57313D01*
X40769Y-38656D02*
X43910Y-35515D01*
X47478Y-34721D02*
X52372Y-39615D01*
X44704Y-34721D02*
X47478Y-34721D01*
X43910Y-35515D02*
X44704Y-34721D01*
X53331Y-38656D02*
X52372Y-39615D01*
X50191Y-41796D02*
X50191Y-41797D01*
X52372Y-39615D02*
X50191Y-41796D01*
X55472Y-38655D02*
X55472Y-38656D01*
X58612Y-35515D02*
X55472Y-38655D01*
X55472Y-38656D02*
X52331Y-41797D01*
X42910Y-38655D02*
X42910Y-38656D01*
X46050Y-35515D02*
X42910Y-38655D01*
X42910Y-38656D02*
X39769Y-41797D01*
X36629Y-44937D02*
X36629Y-44938D01*
X39769Y-41797D02*
X36629Y-44937D01*
X42201Y-50392D02*
X42910Y-51101D01*
X38699Y-50392D02*
X42201Y-50392D01*
X38699Y-47008D02*
X38699Y-50392D01*
X36629Y-44938D02*
X38699Y-47008D01*
X49191Y-44937D02*
X52331Y-41797D01*
X49191Y-44938D02*
X49191Y-44937D01*
X46050Y-48079D02*
X47115Y-47014D01*
X47115Y-47014D02*
X49191Y-44938D01*
X55590Y-51101D02*
X55472Y-51101D01*
X58612Y-48079D02*
X55590Y-51101D01*
X54343Y-52230D02*
X52331Y-52230D01*
X55472Y-51101D02*
X54343Y-52230D01*
X47115Y-47014D02*
X52331Y-52230D01*
X38699Y-53290D02*
X39769Y-54360D01*
X38699Y-50392D02*
X38699Y-53290D01*
X39769Y-54360D02*
X36629Y-57500D01*
X52331Y-52230D02*
X52331Y-54360D01*
X52331Y-54360D02*
X49191Y-57500D01*
M02*
